<svg version="1.1" id="Layer_1" xmlns="http://www.w3.org/2000/svg" xmlns:xlink="http://www.w3.org/1999/xlink" x="0px" y="0px"
	 width="100%" viewBox="0 0 140 142" enable-background="new 0 0 140 142" xml:space="preserve">
<path fill="#FEFEFD" opacity="1.000000" stroke="none" 
	d="
M83.000000,143.000000 
	C55.357433,143.000000 28.214865,143.000000 1.036149,143.000000 
	C1.036149,95.732780 1.036149,48.465523 1.036149,1.099133 
	C47.558990,1.099133 94.118263,1.099133 140.838776,1.099133 
	C140.838776,48.332890 140.838776,95.666397 140.838776,143.000000 
	C121.799248,143.000000 102.649620,143.000000 83.000000,143.000000 
M129.882126,61.485355 
	C129.593887,61.310871 129.305649,61.136387 128.998810,61.000824 
	C128.998810,61.000824 129.037781,60.982311 128.878510,60.480896 
	C128.589691,60.296917 128.300873,60.112938 127.808189,59.400700 
	C127.237297,58.926144 126.666405,58.451588 125.906990,57.480305 
	C125.611839,57.303734 125.316681,57.127163 124.999908,56.999840 
	C124.999908,56.999840 125.048820,56.977482 124.896507,56.474716 
	C124.605911,56.298027 124.315315,56.121334 124.000603,55.998173 
	C124.000603,55.998173 124.054565,55.975021 123.905273,55.468479 
	C123.612762,55.292099 123.320251,55.115715 123.002426,54.997166 
	C123.002426,54.997166 123.060120,54.971531 122.905663,54.466084 
	C122.611694,54.292297 122.317719,54.118511 122.001183,53.999104 
	C122.001183,53.999104 122.051041,53.967793 121.850105,53.409798 
	C121.241074,52.927273 120.632042,52.444748 119.998535,51.999710 
	C119.998535,51.999710 120.040047,51.983036 119.908798,51.469814 
	C119.615906,51.292919 119.323021,51.116028 119.001961,50.996613 
	C119.001961,50.996613 119.060196,50.970055 118.912643,50.453304 
	C118.614128,50.275047 118.315605,50.096790 117.854347,49.477066 
	C117.668800,49.198433 117.410591,49.033646 116.906380,48.480415 
	C116.611183,48.304821 116.315987,48.129227 115.999504,48.000126 
	C115.999504,48.000126 116.045822,47.978497 115.899391,47.473038 
	C115.608292,47.296425 115.317184,47.119816 115.001411,46.998203 
	C115.001411,46.998203 115.056267,46.973217 114.900360,46.470226 
	C114.606346,46.300247 114.312325,46.130268 113.999855,46.001488 
	C113.999855,46.001488 114.039925,45.980671 113.884064,45.484650 
	C113.598129,45.305336 113.312202,45.126026 112.999138,44.997353 
	C112.999138,44.997353 113.051865,44.974533 112.911926,44.463470 
	C112.619263,44.284790 112.326607,44.106113 112.006660,43.992863 
	C112.006660,43.992863 112.071922,43.965187 111.912788,43.459400 
	C111.617050,43.286736 111.321304,43.114071 111.002998,42.998680 
	C111.002998,42.998680 111.058777,42.972641 110.896347,42.473320 
	C110.604286,42.299904 110.312225,42.126488 109.999077,41.999458 
	C109.999077,41.999458 110.042290,41.972481 109.778778,41.348427 
	C108.362450,41.248264 106.946129,41.148098 105.529800,41.047932 
	C105.651344,42.445419 105.772888,43.842911 106.212463,45.848484 
	C107.543411,47.998463 110.469070,50.806259 109.904701,52.174427 
	C108.246826,56.193558 109.725716,58.381161 112.416367,60.757019 
	C114.161148,62.297672 116.375931,64.413940 113.702789,66.420837 
	C112.636375,67.221458 109.785957,66.087173 107.964775,65.318977 
	C106.083427,64.525398 103.836632,61.736450 102.839828,62.194210 
	C98.074417,64.382622 95.447830,61.884144 92.469582,58.963943 
	C91.651535,58.161842 89.701355,58.514381 88.270676,58.337086 
	C88.344749,59.783264 87.842979,61.735435 88.592331,62.588249 
	C91.879951,66.329758 95.459000,69.827103 99.067772,73.271118 
	C102.632759,76.673347 106.360451,79.905098 109.957001,83.620567 
	C109.957001,83.620567 109.936798,84.033340 109.250687,84.225288 
	C108.661858,86.198479 108.073021,88.171669 107.484192,90.144859 
	C109.320374,89.764496 111.156548,89.384132 113.407745,89.020477 
	C113.407745,89.020477 113.823044,89.013367 114.276672,89.647522 
	C115.032875,93.890320 115.789078,98.133125 116.592476,102.640709 
	C122.115067,96.847694 128.113434,90.555603 134.674118,83.919060 
	C135.081421,82.938530 135.488724,81.958000 136.089233,80.615395 
	C136.089233,80.615395 136.100830,80.205162 136.686783,79.606667 
	C136.466537,76.391319 136.246277,73.175972 135.994827,69.992195 
	C135.994827,69.992195 136.038864,69.987968 136.051239,69.371872 
	C135.720764,68.891411 135.390274,68.410950 135.005264,67.989204 
	C135.005264,67.989204 135.082413,67.967522 135.073914,67.360222 
	C134.707596,66.923050 134.341278,66.485870 133.799789,65.586708 
	C133.612320,65.297104 133.353577,65.102081 132.899536,64.486191 
	C132.607529,64.307419 132.315536,64.128639 132.000137,63.999538 
	C132.000137,63.999538 132.049805,63.976128 131.898544,63.472874 
	C131.607101,63.297977 131.315659,63.123081 131.000519,62.999210 
	C131.000519,62.999210 131.051315,62.975067 130.897949,62.472012 
	C130.604568,62.301414 130.311172,62.130817 129.999695,62.001438 
	C129.999695,62.001438 130.039886,61.981182 129.882126,61.485355 
M63.193058,110.803543 
	C61.392139,110.560158 59.591221,110.316772 57.790298,110.073387 
	C58.188961,111.729813 58.587624,113.386246 58.989517,115.555809 
	C59.002869,115.726334 59.016220,115.896866 58.582058,116.694870 
	C54.719891,117.658081 50.857723,118.621292 46.129990,119.800377 
	C52.570213,125.892288 58.238380,131.700821 64.396484,136.932663 
	C69.035530,140.873901 76.176598,141.419861 80.584274,137.490341 
	C89.760956,129.309189 98.314140,120.422836 106.968193,111.672623 
	C107.643173,110.990150 107.104965,109.107819 107.130615,107.783150 
	C105.780594,107.800285 104.178894,107.364113 103.139687,107.941078 
	C101.591667,108.800537 100.563362,110.551964 99.077324,111.582779 
	C98.099846,112.260834 96.106575,113.023453 95.594635,112.575401 
	C91.940620,109.377319 89.951073,112.166489 87.711815,114.402512 
	C85.957146,116.154640 84.055458,118.658684 81.525063,116.007431 
	C79.039513,113.403175 81.860954,111.680931 83.260651,109.713425 
	C84.424828,108.076981 86.397171,105.503860 85.856827,104.438553 
	C83.928879,100.637535 85.929001,98.750298 88.074081,96.224838 
	C89.257103,94.832047 89.269592,92.445023 89.809776,90.506218 
	C87.840614,91.173309 85.384140,91.310913 83.985603,92.598030 
	C77.506134,98.561249 71.320358,104.843567 64.435768,111.015862 
	C64.238487,111.031258 64.041206,111.046646 63.193058,110.803543 
M33.010540,62.820911 
	C34.055519,63.970161 35.100494,65.119415 36.145473,66.268661 
	C36.650143,66.173241 37.154812,66.077812 37.659477,65.982384 
	C37.895252,64.168365 38.993858,61.566772 38.197773,60.694618 
	C36.172653,58.475998 34.084789,59.737453 32.021137,61.743603 
	C30.993261,57.400944 29.965387,53.058281 28.845976,48.328888 
	C23.934572,53.325676 18.707394,58.588249 13.543009,63.911739 
	C6.865469,70.795006 6.644124,79.554390 13.296248,86.528023 
	C20.307062,93.877701 27.521936,101.042290 34.892723,108.029198 
	C36.062061,109.137634 38.521408,108.885178 40.384338,109.261909 
	C39.886028,107.570740 39.811569,105.546753 38.800045,104.258575 
	C36.774155,101.678604 33.688805,99.777725 36.536556,95.792557 
	C37.026390,95.107086 36.105556,93.066597 35.379925,91.948174 
	C34.491093,90.578194 32.742882,89.697655 32.074802,88.273186 
	C31.495026,87.036987 31.903008,85.337517 31.874445,83.842796 
	C33.387993,83.826324 35.107876,83.351151 36.360554,83.914627 
	C37.785202,84.555458 38.692459,86.258011 40.014057,87.245537 
	C40.999336,87.981766 42.894871,89.071472 43.343571,88.710213 
	C47.673725,85.223900 49.747982,88.855896 52.564514,91.069191 
	C53.792290,92.034004 55.910511,91.865692 57.624336,92.211983 
	C57.219936,90.460411 57.380638,88.180855 56.318394,87.043907 
	C49.955811,80.233902 43.311810,73.686821 36.649395,66.937370 
	C35.623177,67.712975 34.912991,68.654137 34.065918,68.799927 
	C32.612827,69.050011 31.074221,68.803215 29.571514,68.765030 
	C29.633741,67.379692 29.334782,65.831535 29.864290,64.656837 
	C30.350571,63.578041 31.729544,62.901642 33.010540,62.820911 
M54.947350,22.446928 
	C50.127533,27.269684 45.161602,31.959835 40.584648,37.003002 
	C39.350471,38.362896 39.296780,40.794144 38.701221,42.733620 
	C40.654739,42.143295 42.988098,42.032089 44.475033,40.853245 
	C46.858829,38.963367 48.553204,36.554440 52.162292,38.738567 
	C53.062622,39.283421 55.208664,38.311680 56.486477,37.544518 
	C57.872898,36.712147 58.749165,34.989418 60.159927,34.251507 
	C61.224499,33.694675 63.293118,33.535267 63.980888,34.186031 
	C64.748573,34.912407 65.001015,37.011330 64.506393,38.050571 
	C63.756157,39.626900 62.053860,40.720192 60.974838,42.180386 
	C60.245991,43.166710 59.130188,44.990479 59.491806,45.484070 
	C62.813820,50.018463 59.247696,52.267406 56.840446,55.169365 
	C55.929008,56.268101 56.057941,58.229862 55.712662,59.798244 
	C57.295036,59.728500 59.502445,60.310192 60.361191,59.486252 
	C67.414268,52.719021 74.216537,45.690395 81.094086,38.741913 
	C80.629555,38.145878 80.132790,37.790020 80.054092,37.358009 
	C79.739723,35.632236 79.555328,33.882782 79.322845,32.142094 
	C81.034813,32.359390 82.763367,32.493053 84.452034,32.827866 
	C85.349648,33.005836 86.260818,33.971478 87.023949,33.827793 
	C90.947044,33.089108 94.824089,32.105827 99.523712,31.021963 
	C94.081825,25.625628 88.883759,20.364626 83.566933,15.226504 
	C77.357140,9.225423 68.434601,9.281628 62.178295,15.273313 
	C59.896816,17.458290 57.689011,19.720198 54.947350,22.446928 
M43.283466,48.782650 
	C41.575546,48.402443 39.007156,47.141193 38.323071,47.809303 
	C36.369106,49.717640 35.181000,52.410152 33.691647,54.794216 
	C35.042847,55.240135 37.078388,56.470539 37.624786,55.993889 
	C39.795227,54.100510 41.500648,51.674057 43.283466,48.782650 
M45.322491,65.041267 
	C47.300777,63.362595 49.597706,61.918781 51.095848,59.886215 
	C51.671185,59.105648 50.425549,56.982903 50.009651,55.471733 
	C47.576645,57.174671 44.957287,58.687180 42.863182,60.736439 
	C42.428864,61.161461 43.944107,63.578697 45.322491,65.041267 
M111.111664,99.287392 
	C111.193634,97.797096 111.461899,96.276772 111.229897,94.837074 
	C111.170021,94.465446 109.086502,93.848343 108.704811,94.194794 
	C106.552498,96.148392 104.496368,98.257362 102.762512,100.578590 
	C102.437088,101.014259 103.719933,102.651230 104.260612,103.733833 
	C106.258682,102.556969 108.257965,101.382133 110.252205,100.198822 
	C110.390991,100.116470 110.492363,99.971069 111.111664,99.287392 
M56.015587,46.143257 
	C55.293873,41.881874 53.904514,41.149277 50.906223,43.600887 
	C49.514744,44.738655 48.065205,46.005245 47.213398,47.532196 
	C46.655396,48.532482 47.121380,50.103992 47.128738,51.419666 
	C48.477905,51.404400 50.145416,51.884335 51.106998,51.266167 
	C52.866333,50.135155 54.208439,48.355122 56.015587,46.143257 
M98.192375,103.365143 
	C99.837067,100.976479 99.589005,97.988281 96.675385,98.512589 
	C94.093987,98.977112 91.891220,102.169617 89.841782,104.446320 
	C89.425797,104.908455 90.441650,106.659485 90.797417,107.816330 
	C92.853973,106.754311 94.915550,105.701775 96.961296,104.619324 
	C97.244865,104.469284 97.450325,104.171593 98.192375,103.365143 
M86.863037,44.767395 
	C85.592979,45.417625 84.322929,46.067852 83.052872,46.718082 
	C84.771782,49.031116 86.292625,51.546604 88.327126,53.537056 
	C88.959129,54.155376 91.141083,53.647232 92.288345,53.040264 
	C92.706917,52.818821 92.597771,50.511261 91.999313,49.682838 
	C90.755142,47.960594 89.023323,46.590633 86.863037,44.767395 
M62.155174,101.501900 
	C61.813065,101.141991 61.531971,100.674751 61.118790,100.439857 
	C58.717564,99.074745 57.134892,93.595596 53.824116,97.173576 
	C50.527832,100.735893 55.626354,102.742836 57.632694,104.822258 
	C60.186928,107.469536 61.927437,106.380188 62.155174,101.501900 
M54.015057,111.579613 
	C52.393932,109.589272 51.043507,107.220039 49.028790,105.780571 
	C48.124653,105.134583 45.891216,106.349106 44.260986,106.719376 
	C45.998600,109.130241 47.528488,111.754120 49.624168,113.797813 
	C50.129601,114.290718 52.507980,112.863037 54.015057,111.579613 
M42.832485,98.567482 
	C43.419758,99.151207 43.914715,100.043915 44.613968,100.252846 
	C45.972214,100.658661 47.445179,100.680519 48.870617,100.861450 
	C48.730801,99.286446 48.801003,97.650589 48.369148,96.160202 
	C48.126125,95.321503 47.176014,94.404297 46.331123,94.082428 
	C44.576153,93.413857 42.679054,93.118378 40.840378,92.669540 
	C41.325680,94.467621 41.810982,96.265694 42.832485,98.567482 
M101.548691,42.666004 
	C99.826462,40.690731 98.309631,38.451618 96.279823,36.871437 
	C95.479912,36.248718 92.530571,36.697784 92.276123,37.339382 
	C90.693604,41.329800 94.597198,42.658691 96.601250,44.762280 
	C98.693161,46.958069 100.434135,45.942276 101.548691,42.666004 
M100.370186,57.117039 
	C101.896530,57.324036 103.422874,57.531033 104.949226,57.738029 
	C104.750877,56.157677 105.120537,54.033134 104.236145,53.110054 
	C102.384407,51.177284 100.428535,46.877270 97.237976,49.610523 
	C93.584763,52.740116 98.518517,54.380161 100.370186,57.117039 
M96.289375,95.017937 
	C98.288216,93.170280 100.471191,91.470505 102.156960,89.371414 
	C102.580612,88.843880 101.409897,87.035919 100.971901,85.816399 
	C98.847504,87.515594 96.505180,89.022163 94.730232,91.030251 
	C94.191071,91.640236 95.218254,93.634727 96.289375,95.017937 
M82.609009,38.000492 
	C83.712212,39.057911 84.694717,40.336662 85.989510,41.042747 
	C86.397095,41.265015 88.422089,39.852749 88.359764,39.358406 
	C88.164169,37.806908 87.327171,36.336273 86.520782,34.278519 
	C84.913101,35.737389 83.976204,36.587570 82.609009,38.000492 
z"/>
<path fill="#0B994A" opacity="1.000000" stroke="none" 
	d="
M65.029396,111.011597 
	C71.320358,104.843567 77.506134,98.561249 83.985603,92.598030 
	C85.384140,91.310913 87.840614,91.173309 89.809784,90.506218 
	C89.269592,92.445023 89.257103,94.832047 88.074081,96.224838 
	C85.929001,98.750298 83.928879,100.637535 85.856827,104.438553 
	C86.397171,105.503860 84.424828,108.076981 83.260651,109.713425 
	C81.860954,111.680931 79.039513,113.403175 81.525063,116.007431 
	C84.055458,118.658684 85.957146,116.154640 87.711815,114.402512 
	C89.951073,112.166489 91.940620,109.377319 95.594635,112.575401 
	C96.106575,113.023453 98.099846,112.260834 99.077324,111.582779 
	C100.563362,110.551964 101.591667,108.800537 103.139687,107.941078 
	C104.178894,107.364113 105.780594,107.800285 107.130615,107.783150 
	C107.104965,109.107819 107.643173,110.990150 106.968193,111.672623 
	C98.314140,120.422836 89.760956,129.309189 80.584274,137.490341 
	C76.176598,141.419861 69.035530,140.873901 64.396484,136.932663 
	C58.238380,131.700821 52.570213,125.892288 46.129990,119.800377 
	C50.857723,118.621292 54.719891,117.658081 59.142368,116.494614 
	C61.685856,117.833710 63.609661,121.042656 66.232269,118.209404 
	C67.086075,117.287025 65.524338,114.135986 65.084297,112.000793 
	C65.018364,111.680878 65.045380,111.341805 65.029396,111.011597 
z"/>
<path fill="#DF0919" opacity="1.000000" stroke="none" 
	d="
M55.197472,22.196968 
	C57.689011,19.720198 59.896816,17.458290 62.178295,15.273313 
	C68.434601,9.281628 77.357140,9.225423 83.566933,15.226504 
	C88.883759,20.364626 94.081825,25.625628 99.523712,31.021963 
	C94.824089,32.105827 90.947044,33.089108 87.023949,33.827793 
	C86.260818,33.971478 85.349648,33.005836 84.452034,32.827866 
	C82.763367,32.493053 81.034813,32.359390 79.322845,32.142094 
	C79.555328,33.882782 79.739723,35.632236 80.054092,37.358009 
	C80.132790,37.790020 80.629555,38.145878 81.094086,38.741913 
	C74.216537,45.690395 67.414268,52.719021 60.361191,59.486252 
	C59.502445,60.310192 57.295036,59.728500 55.712662,59.798244 
	C56.057941,58.229862 55.929008,56.268101 56.840446,55.169365 
	C59.247696,52.267406 62.813820,50.018463 59.491806,45.484070 
	C59.130188,44.990479 60.245991,43.166710 60.974838,42.180386 
	C62.053860,40.720192 63.756157,39.626900 64.506393,38.050571 
	C65.001015,37.011330 64.748573,34.912407 63.980888,34.186031 
	C63.293118,33.535267 61.224499,33.694675 60.159927,34.251507 
	C58.749165,34.989418 57.872898,36.712147 56.486477,37.544518 
	C55.208664,38.311680 53.062622,39.283421 52.162292,38.738567 
	C48.553204,36.554440 46.858829,38.963367 44.475033,40.853245 
	C42.988098,42.032089 40.654739,42.143295 38.701221,42.733620 
	C39.296780,40.794144 39.350471,38.362896 40.584648,37.003002 
	C45.161602,31.959835 50.127533,27.269684 55.197472,22.196968 
z"/>
<path fill="#099EB6" opacity="1.000000" stroke="none" 
	d="
M32.715218,62.047966 
	C31.729544,62.901642 30.350571,63.578041 29.864290,64.656837 
	C29.334782,65.831535 29.633741,67.379692 29.571514,68.765030 
	C31.074221,68.803215 32.612827,69.050011 34.065918,68.799927 
	C34.912991,68.654137 35.623177,67.712975 36.649395,66.937370 
	C43.311810,73.686821 49.955811,80.233902 56.318394,87.043907 
	C57.380638,88.180855 57.219936,90.460411 57.624336,92.211983 
	C55.910511,91.865692 53.792290,92.034004 52.564514,91.069191 
	C49.747982,88.855896 47.673725,85.223900 43.343571,88.710213 
	C42.894871,89.071472 40.999336,87.981766 40.014057,87.245537 
	C38.692459,86.258011 37.785202,84.555458 36.360554,83.914627 
	C35.107876,83.351151 33.387993,83.826324 31.874445,83.842796 
	C31.903008,85.337517 31.495026,87.036987 32.074802,88.273186 
	C32.742882,89.697655 34.491093,90.578194 35.379925,91.948174 
	C36.105556,93.066597 37.026390,95.107086 36.536556,95.792557 
	C33.688805,99.777725 36.774155,101.678604 38.800045,104.258575 
	C39.811569,105.546753 39.886028,107.570740 40.384338,109.261902 
	C38.521408,108.885178 36.062061,109.137634 34.892723,108.029198 
	C27.521936,101.042290 20.307062,93.877701 13.296248,86.528023 
	C6.644124,79.554390 6.865469,70.795006 13.543009,63.911739 
	C18.707394,58.588249 23.934572,53.325676 28.845976,48.328888 
	C29.965387,53.058281 30.993261,57.400944 32.411934,61.933102 
	C32.802731,62.122601 32.715221,62.047966 32.715218,62.047966 
z"/>
<path fill="#ED8F0B" opacity="1.000000" stroke="none" 
	d="
M133.023560,65.001633 
	C133.353577,65.102081 133.612320,65.297104 133.906860,66.118095 
	C134.370087,67.088829 134.726242,67.528175 135.082413,67.967522 
	C135.082413,67.967522 135.005264,67.989204 135.015656,68.270462 
	C135.363663,69.030464 135.701263,69.509216 136.038864,69.987968 
	C136.038864,69.987968 135.994827,69.992195 135.992462,70.437935 
	C136.027008,73.990837 136.063919,77.098000 136.100830,80.205162 
	C136.100830,80.205162 136.089233,80.615395 135.641724,80.873367 
	C134.833405,82.175392 134.472610,83.219444 134.111801,84.263504 
	C128.113434,90.555603 122.115067,96.847694 116.592476,102.640709 
	C115.789078,98.133125 115.032875,93.890320 114.186966,88.997360 
	C115.493675,86.366859 118.729866,84.537682 116.006569,81.941444 
	C115.172066,81.145866 112.076767,82.721741 110.016762,83.211639 
	C106.360451,79.905098 102.632759,76.673347 99.067772,73.271118 
	C95.459000,69.827103 91.879951,66.329758 88.592331,62.588249 
	C87.842979,61.735435 88.344749,59.783264 88.270676,58.337086 
	C89.701355,58.514381 91.651535,58.161842 92.469582,58.963943 
	C95.447830,61.884144 98.074417,64.382622 102.839828,62.194210 
	C103.836632,61.736450 106.083427,64.525398 107.964775,65.318977 
	C109.785957,66.087173 112.636375,67.221458 113.702789,66.420837 
	C116.375931,64.413940 114.161148,62.297672 112.416367,60.757019 
	C109.725716,58.381161 108.246826,56.193558 109.904701,52.174427 
	C110.469070,50.806259 107.543411,47.998463 106.086349,45.181629 
	C105.829231,41.272202 107.786987,41.383465 110.042290,41.972481 
	C110.042290,41.972481 109.999077,41.999458 110.104111,42.215881 
	C110.492355,42.612419 110.775566,42.792530 111.058777,42.972641 
	C111.058777,42.972641 111.002998,42.998680 111.110527,43.210205 
	C111.502678,43.602882 111.787300,43.784035 112.071922,43.965187 
	C112.071922,43.965187 112.006660,43.992863 112.110733,44.201897 
	C112.493828,44.598801 112.772842,44.786667 113.051865,44.974533 
	C113.051865,44.974533 112.999138,44.997353 113.100281,45.213501 
	C113.480919,45.613319 113.760422,45.796997 114.039925,45.980671 
	C114.039925,45.980671 113.999855,46.001488 114.104630,46.218674 
	C114.491692,46.614979 114.773979,46.794098 115.056267,46.973221 
	C115.056267,46.973217 115.001411,46.998203 115.104744,47.211124 
	C115.487328,47.608864 115.766571,47.793682 116.045822,47.978497 
	C116.045822,47.978497 115.999504,48.000126 116.107529,48.219028 
	C116.503601,48.619522 116.791664,48.801113 117.079720,48.982708 
	C117.410591,49.033646 117.668800,49.198433 118.030273,49.941845 
	C118.490868,50.594437 118.775528,50.782246 119.060196,50.970055 
	C119.060196,50.970055 119.001961,50.996613 119.104439,51.209023 
	C119.484627,51.608631 119.762337,51.795830 120.040047,51.983032 
	C120.040047,51.983036 119.998535,51.999710 120.038574,52.310326 
	C120.736092,53.069897 121.393570,53.518845 122.051041,53.967793 
	C122.051041,53.967793 122.001183,53.999104 122.106911,54.211914 
	C122.495132,54.606998 122.777626,54.789265 123.060120,54.971535 
	C123.060120,54.971531 123.002426,54.997166 123.107040,55.209190 
	C123.492630,55.605816 123.773598,55.790417 124.054565,55.975021 
	C124.054565,55.975021 124.000603,55.998173 124.104240,56.211834 
	C124.488190,56.609489 124.768509,56.793484 125.048820,56.977482 
	C125.048820,56.977482 124.999908,56.999840 125.110329,57.218529 
	C125.512337,57.617153 125.803932,57.797092 126.095520,57.977036 
	C126.666405,58.451588 127.237297,58.926144 128.000473,59.908684 
	C128.474442,60.605217 128.756104,60.793766 129.037781,60.982311 
	C129.037781,60.982311 128.998810,61.000824 129.100891,61.219147 
	C129.481949,61.618706 129.760925,61.799942 130.039886,61.981178 
	C130.039886,61.981182 129.999695,62.001438 130.103790,62.218445 
	C130.489014,62.615318 130.770172,62.795193 131.051315,62.975067 
	C131.051315,62.975067 131.000519,62.999210 131.104538,63.213428 
	C131.488968,63.610474 131.769394,63.793301 132.049805,63.976128 
	C132.049805,63.976128 132.000137,63.999538 132.101227,64.213921 
	C132.476074,64.619408 132.749817,64.810516 133.023560,65.001633 
z"/>
<path fill="#D51D2A" opacity="1.000000" stroke="none" 
	d="
M43.330910,49.113873 
	C41.500648,51.674057 39.795227,54.100510 37.624786,55.993889 
	C37.078388,56.470539 35.042847,55.240135 33.691647,54.794216 
	C35.181000,52.410152 36.369106,49.717640 38.323071,47.809303 
	C39.007156,47.141193 41.575546,48.402443 43.330910,49.113873 
z"/>
<path fill="#D11423" opacity="1.000000" stroke="none" 
	d="
M44.941666,65.059525 
	C43.944107,63.578697 42.428864,61.161461 42.863182,60.736439 
	C44.957287,58.687180 47.576645,57.174671 50.009651,55.471733 
	C50.425549,56.982903 51.671185,59.105648 51.095848,59.886215 
	C49.597706,61.918781 47.300777,63.362595 44.941666,65.059525 
z"/>
<path fill="#16944E" opacity="1.000000" stroke="none" 
	d="
M110.861397,99.571190 
	C110.492363,99.971069 110.390991,100.116470 110.252205,100.198822 
	C108.257965,101.382133 106.258682,102.556969 104.260620,103.733841 
	C103.719933,102.651230 102.437088,101.014259 102.762512,100.578590 
	C104.496368,98.257362 106.552498,96.148392 108.704811,94.194794 
	C109.086502,93.848343 111.170021,94.465446 111.229897,94.837074 
	C111.461899,96.276772 111.193634,97.797096 110.861397,99.571190 
z"/>
<path fill="#CF1120" opacity="1.000000" stroke="none" 
	d="
M55.870064,46.494503 
	C54.208439,48.355122 52.866333,50.135155 51.106998,51.266167 
	C50.145416,51.884335 48.477905,51.404400 47.128738,51.419662 
	C47.121380,50.103992 46.655396,48.532482 47.213398,47.532196 
	C48.065205,46.005245 49.514744,44.738655 50.906223,43.600887 
	C53.904514,41.149277 55.293873,41.881874 55.870064,46.494503 
z"/>
<path fill="#13934D" opacity="1.000000" stroke="none" 
	d="
M97.942162,103.653702 
	C97.450325,104.171593 97.244865,104.469284 96.961296,104.619324 
	C94.915550,105.701775 92.853973,106.754311 90.797417,107.816330 
	C90.441650,106.659485 89.425797,104.908455 89.841782,104.446320 
	C91.891220,102.169617 94.093987,98.977112 96.675385,98.512589 
	C99.589005,97.988281 99.837067,100.976479 97.942162,103.653702 
z"/>
<path fill="#E6921E" opacity="1.000000" stroke="none" 
	d="
M87.177490,44.921638 
	C89.023323,46.590633 90.755142,47.960594 91.999313,49.682838 
	C92.597771,50.511261 92.706917,52.818821 92.288345,53.040264 
	C91.141083,53.647232 88.959129,54.155376 88.327126,53.537056 
	C86.292625,51.546604 84.771782,49.031116 83.052872,46.718082 
	C84.322929,46.067852 85.592979,45.417625 87.177490,44.921638 
z"/>
<path fill="#189AAF" opacity="1.000000" stroke="none" 
	d="
M62.368237,101.802612 
	C61.927437,106.380188 60.186928,107.469536 57.632694,104.822258 
	C55.626354,102.742836 50.527832,100.735893 53.824116,97.173576 
	C57.134892,93.595596 58.717564,99.074745 61.118790,100.439857 
	C61.531971,100.674751 61.813065,101.141991 62.368237,101.802612 
z"/>
<path fill="#1B9CB3" opacity="1.000000" stroke="none" 
	d="
M54.020058,111.949097 
	C52.507980,112.863037 50.129601,114.290718 49.624168,113.797813 
	C47.528488,111.754120 45.998600,109.130241 44.260986,106.719376 
	C45.891216,106.349106 48.124653,105.134583 49.028790,105.780571 
	C51.043507,107.220039 52.393932,109.589272 54.020058,111.949097 
z"/>
<path fill="#1A9BAF" opacity="1.000000" stroke="none" 
	d="
M42.564384,98.315628 
	C41.810982,96.265694 41.325680,94.467621 40.840378,92.669540 
	C42.679054,93.118378 44.576153,93.413857 46.331123,94.082428 
	C47.176014,94.404297 48.126125,95.321503 48.369148,96.160202 
	C48.801003,97.650589 48.730801,99.286446 48.870617,100.861450 
	C47.445179,100.680519 45.972214,100.658661 44.613968,100.252846 
	C43.914715,100.043915 43.419758,99.151207 42.564384,98.315628 
z"/>
<path fill="#E39422" opacity="1.000000" stroke="none" 
	d="
M101.490311,43.007416 
	C100.434135,45.942276 98.693161,46.958069 96.601250,44.762280 
	C94.597198,42.658691 90.693604,41.329800 92.276123,37.339382 
	C92.530571,36.697784 95.479912,36.248718 96.279823,36.871437 
	C98.309631,38.451618 99.826462,40.690731 101.490311,43.007416 
z"/>
<path fill="#E5931F" opacity="1.000000" stroke="none" 
	d="
M100.110374,56.867363 
	C98.518517,54.380161 93.584763,52.740116 97.237976,49.610523 
	C100.428535,46.877270 102.384407,51.177284 104.236145,53.110054 
	C105.120537,54.033134 104.750877,56.157677 104.949219,57.738029 
	C103.422874,57.531033 101.896530,57.324036 100.110374,56.867363 
z"/>
<path fill="#059643" opacity="1.000000" stroke="none" 
	d="
M95.908707,95.006516 
	C95.218254,93.634727 94.191071,91.640236 94.730232,91.030251 
	C96.505180,89.022163 98.847504,87.515594 100.971901,85.816399 
	C101.409897,87.035919 102.580612,88.843880 102.156960,89.371414 
	C100.471191,91.470505 98.288216,93.170280 95.908707,95.006516 
z"/>
<path fill="#FCF9F0" opacity="1.000000" stroke="none" 
	d="
M109.986877,83.416107 
	C112.076767,82.721741 115.172066,81.145866 116.006569,81.941444 
	C118.729866,84.537682 115.493675,86.366859 113.960144,88.680283 
	C113.823044,89.013367 113.407745,89.020477 113.213593,88.675308 
	C111.991890,86.897873 110.964348,85.465607 109.936798,84.033340 
	C109.936798,84.033340 109.957001,83.620567 109.986877,83.416107 
z"/>
<path fill="#ECF8F5" opacity="1.000000" stroke="none" 
	d="
M64.732582,111.013733 
	C65.045380,111.341805 65.018364,111.680878 65.084297,112.000793 
	C65.524338,114.135986 67.086075,117.287025 66.232269,118.209404 
	C63.609661,121.042656 61.685856,117.833710 59.366127,116.180878 
	C59.016220,115.896866 59.002869,115.726334 59.333458,115.309845 
	C61.066238,113.729927 62.455082,112.395981 63.843929,111.062027 
	C64.041206,111.046646 64.238487,111.031258 64.732582,111.013733 
z"/>
<path fill="#C81928" opacity="1.000000" stroke="none" 
	d="
M32.862881,62.434441 
	C32.715221,62.047966 32.802731,62.122601 32.783279,62.143639 
	C34.084789,59.737453 36.172653,58.475998 38.197773,60.694618 
	C38.993858,61.566772 37.895252,64.168365 37.659477,65.982384 
	C37.154812,66.077812 36.650143,66.173241 36.145473,66.268661 
	C35.100494,65.119415 34.055519,63.970161 32.862881,62.434441 
z"/>
<path fill="#1A924C" opacity="1.000000" stroke="none" 
	d="
M109.593742,84.129318 
	C110.964348,85.465607 111.991890,86.897873 113.006088,88.666962 
	C111.156548,89.384132 109.320374,89.764496 107.484192,90.144859 
	C108.073021,88.171669 108.661858,86.198479 109.593742,84.129318 
z"/>
<path fill="#E19324" opacity="1.000000" stroke="none" 
	d="
M82.824158,37.719120 
	C83.976204,36.587570 84.913101,35.737389 86.520782,34.278519 
	C87.327171,36.336273 88.164169,37.806908 88.359764,39.358406 
	C88.422089,39.852749 86.397095,41.265015 85.989510,41.042747 
	C84.694717,40.336662 83.712212,39.057911 82.824158,37.719120 
z"/>
<path fill="#229CAD" opacity="1.000000" stroke="none" 
	d="
M63.518494,110.932785 
	C62.455082,112.395981 61.066238,113.729927 59.331841,115.053276 
	C58.587624,113.386246 58.188961,111.729813 57.790298,110.073380 
	C59.591221,110.316772 61.392139,110.560158 63.518494,110.932785 
z"/>
<path fill="#DE9329" opacity="1.000000" stroke="none" 
	d="
M109.910538,41.660454 
	C107.786987,41.383465 105.829231,41.272202 105.927338,44.877586 
	C105.772888,43.842911 105.651344,42.445419 105.529800,41.047932 
	C106.946129,41.148098 108.362450,41.248264 109.910538,41.660454 
z"/>
<path fill="#DE9329" opacity="1.000000" stroke="none" 
	d="
M136.393799,79.905914 
	C136.063919,77.098000 136.027008,73.990837 136.008057,70.422150 
	C136.246277,73.175972 136.466537,76.391319 136.393799,79.905914 
z"/>
<path fill="#DE9329" opacity="1.000000" stroke="none" 
	d="
M134.392960,84.091278 
	C134.472610,83.219444 134.833405,82.175392 135.545135,81.054398 
	C135.488724,81.958000 135.081421,82.938530 134.392960,84.091278 
z"/>
<path fill="#DE9329" opacity="1.000000" stroke="none" 
	d="
M121.950577,53.688797 
	C121.393570,53.518845 120.736092,53.069897 120.050812,52.291584 
	C120.632042,52.444748 121.241074,52.927273 121.950577,53.688797 
z"/>
<path fill="#DE9329" opacity="1.000000" stroke="none" 
	d="
M135.078156,67.663872 
	C134.726242,67.528175 134.370087,67.088829 133.994446,66.349091 
	C134.341278,66.485870 134.707596,66.923050 135.078156,67.663872 
z"/>
<path fill="#DE9329" opacity="1.000000" stroke="none" 
	d="
M136.045044,69.679916 
	C135.701263,69.509216 135.363663,69.030464 135.042938,68.241104 
	C135.390274,68.410950 135.720764,68.891411 136.045044,69.679916 
z"/>
<path fill="#DE9329" opacity="1.000000" stroke="none" 
	d="
M126.001251,57.728668 
	C125.803932,57.797092 125.512337,57.617153 125.121140,57.193905 
	C125.316681,57.127163 125.611839,57.303734 126.001251,57.728668 
z"/>
<path fill="#DE9329" opacity="1.000000" stroke="none" 
	d="
M123.979919,55.721748 
	C123.773598,55.790417 123.492630,55.605816 123.119705,55.180275 
	C123.320251,55.115715 123.612762,55.292099 123.979919,55.721748 
z"/>
<path fill="#DE9329" opacity="1.000000" stroke="none" 
	d="
M124.972664,56.726097 
	C124.768509,56.793484 124.488190,56.609489 124.116302,56.185070 
	C124.315315,56.121334 124.605911,56.298027 124.972664,56.726097 
z"/>
<path fill="#DE9329" opacity="1.000000" stroke="none" 
	d="
M110.977562,42.722980 
	C110.775566,42.792530 110.492355,42.612419 110.114655,42.192688 
	C110.312225,42.126488 110.604286,42.299904 110.977562,42.722980 
z"/>
<path fill="#DE9329" opacity="1.000000" stroke="none" 
	d="
M111.992355,43.712296 
	C111.787300,43.784035 111.502678,43.602882 111.121811,43.181568 
	C111.321304,43.114071 111.617050,43.286736 111.992355,43.712296 
z"/>
<path fill="#DE9329" opacity="1.000000" stroke="none" 
	d="
M112.981895,44.719002 
	C112.772842,44.786667 112.493828,44.598801 112.124374,44.169182 
	C112.326607,44.106113 112.619263,44.284790 112.981895,44.719002 
z"/>
<path fill="#DE9329" opacity="1.000000" stroke="none" 
	d="
M113.961990,45.732658 
	C113.760422,45.796997 113.480919,45.613319 113.113846,45.188179 
	C113.312202,45.126026 113.598129,45.305336 113.961990,45.732658 
z"/>
<path fill="#DE9329" opacity="1.000000" stroke="none" 
	d="
M114.978317,46.721725 
	C114.773979,46.794098 114.491692,46.614979 114.113861,46.198074 
	C114.312325,46.130268 114.606346,46.300247 114.978317,46.721725 
z"/>
<path fill="#DE9329" opacity="1.000000" stroke="none" 
	d="
M115.972610,47.725769 
	C115.766571,47.793682 115.487328,47.608864 115.117081,47.183624 
	C115.317184,47.119816 115.608292,47.296425 115.972610,47.725769 
z"/>
<path fill="#DE9329" opacity="1.000000" stroke="none" 
	d="
M116.993050,48.731560 
	C116.791664,48.801113 116.503601,48.619522 116.118164,48.195782 
	C116.315987,48.129227 116.611183,48.304821 116.993050,48.731560 
z"/>
<path fill="#DE9329" opacity="1.000000" stroke="none" 
	d="
M128.958145,60.731606 
	C128.756104,60.793766 128.474442,60.605217 128.102417,60.172817 
	C128.300873,60.112938 128.589691,60.296917 128.958145,60.731606 
z"/>
<path fill="#DE9329" opacity="1.000000" stroke="none" 
	d="
M118.986420,50.711678 
	C118.775528,50.782246 118.490868,50.594437 118.111649,50.162579 
	C118.315605,50.096790 118.614128,50.275047 118.986420,50.711678 
z"/>
<path fill="#DE9329" opacity="1.000000" stroke="none" 
	d="
M122.982895,54.718811 
	C122.777626,54.789265 122.495132,54.606998 122.118195,54.184727 
	C122.317719,54.118511 122.611694,54.292297 122.982895,54.718811 
z"/>
<path fill="#DE9329" opacity="1.000000" stroke="none" 
	d="
M119.974426,51.726425 
	C119.762337,51.795830 119.484627,51.608631 119.118523,51.180283 
	C119.323021,51.116028 119.615906,51.292919 119.974426,51.726425 
z"/>
<path fill="#DE9329" opacity="1.000000" stroke="none" 
	d="
M132.961548,64.743912 
	C132.749817,64.810516 132.476074,64.619408 132.112915,64.189079 
	C132.315536,64.128639 132.607529,64.307419 132.961548,64.743912 
z"/>
<path fill="#DE9329" opacity="1.000000" stroke="none" 
	d="
M131.974182,63.724503 
	C131.769394,63.793301 131.488968,63.610474 131.116394,63.187920 
	C131.315659,63.123081 131.607101,63.297977 131.974182,63.724503 
z"/>
<path fill="#DE9329" opacity="1.000000" stroke="none" 
	d="
M130.974640,62.723537 
	C130.770172,62.795193 130.489014,62.615318 130.112823,62.197834 
	C130.311172,62.130817 130.604568,62.301414 130.974640,62.723537 
z"/>
<path fill="#DE9329" opacity="1.000000" stroke="none" 
	d="
M129.960999,61.733269 
	C129.760925,61.799942 129.481949,61.618706 129.110199,61.199684 
	C129.305649,61.136387 129.593887,61.310871 129.960999,61.733269 
z"/>
</svg>